- 
http://www.Speed.Cd      fast  and The Hottest Private Tracker on the net

Please Seed back to make the speed Faster!!!

------------------nfo--------------------------
-[IMG]http://img706.imageshack.us/img706/4451/97643024.jpg[/IMG]



[color=blue][size=5][b]The.Howling.Reborn.2011.BDRip.XVID.AC3.HQ.Hive-CM8[/b][/size][/color]


[b]Thx Hive

Source: Bluray

Video: 720x400 @bitrate 1800 2pass
Audio: True HD AC3 640 to AC3 5.1 @384
Sample: yes included[/b]


[url]http://www.imdb.com/title/tt1554092/[/url]


General
Complete name                  : The.Howling.Reborn.2011.BDRip.XVID.AC3.HQ.Hive-CM8.avi
Format                         : AVI
Format/Info                    : Audio Video Interleave
File size                      : 1.41 GiB
Duration                       : 1h 32mn
Overall bit rate               : 2 193 Kbps
Writing application            : Nandub v1.0rc2
Writing library                : Nandub build 1853/release

Video
ID                             : 0
Format                         : MPEG-4 Visual
Format profile                 : Advanced Simple@L5
Format settings, BVOP          : 1
Format settings, QPel          : Yes
Format settings, GMC           : No warppoints
Format settings, Matrix        : Default (H.263)
Muxing mode                    : Packed bitstream
Codec ID                       : XVID
Codec ID/Hint                  : XviD
Duration                       : 1h 32mn
Bit rate                       : 1 800 Kbps
Width                          : 720 pixels
Height                         : 400 pixels
Display aspect ratio           : 16:9
Frame rate                     : 23.976 fps
Color space                    : YUV
Chroma subsampling             : 4:2:0
Bit depth                      : 8 bits
Scan type                      : Progressive
Compression mode               : Lossy
Bits/(Pixel*Frame)             : 0.261
Stream size                    : 1.16 GiB (82%)
Writing library                : XviD 1.2.1 (UTC 2008-12-04)

Audio
ID                             : 1
Format                         : AC-3
Format/Info                    : Audio Coding 3
Mode extension                 : CM (complete main)
Codec ID                       : 2000
Duration                       : 1h 32mn
Bit rate mode                  : Constant
Bit rate                       : 384 Kbps
Channel(s)                     : 6 channels
Channel positions              : Front: L C R, Side: L R, LFE
Sampling rate                  : 48.0 KHz
Bit depth                      : 16 bits
Compression mode               : Lossy
Stream size                    : 253 MiB (18%)
Alignment                      : Split accross interleaves
Interleave, duration           : 42 ms (1.00 video frame)
Interleave, preload duration   : 500 ms



Plot:

On the eve of his high school graduation, unremarkable Will Kidman finally bonds with the girl he has long yearned for, reclusive Eliana Wynter. But he also discovers a dark secret from his past... that he is about to become a werewolf.

Cast:

Lindsey Shaw	... 	Eliana Wynter
Landon Liboiron	... 	Will Kidman
Erin Agostino	... 	Regina
Kristian Hodko	... 	Tribe


[img]http://img197.imageshack.us/img197/415/53174396.png[/img]
[img]http://img855.imageshack.us/img855/7792/hohoy.png[/img]
[img]http://img854.imageshack.us/img854/6095/hohohoq.png[/img]
[img]http://img543.imageshack.us/img543/5673/hohohohhooho.png[/img]
[img]http://img812.imageshack.us/img812/421/hohohoho.png[/img]
[img]http://img401.imageshack.us/img401/4703/hohohohoho.png[/img]





Greetz

ViSiON,SiC,SANTi,3LT0N,YanKeeS,MAGNET,THC,T0XiC,LKRG,FANTASIA-PLAY,FANTASIA-M,FLAWL3SS,
D2U,WBZ,BHRG,NOVA,Vik,Rapeseed,SAFC,goldadvance,MEMORY100,KaN1vE,Unevano,Pinnz,Wayne
Mr Hive,cedrict wink,and all P2P groups
Great Work Guys :D

LOOKING FOR ANYTHING YOU WANT TO LOOK AND SOUND BETTER

CM8@hushmail.com